<?xml version="1.0" standalone="no"?>
<!DOCTYPE svg PUBLIC "-//W3C//DTD SVG 20010904//EN"
 "http://www.w3.org/TR/2001/REC-SVG-20010904/DTD/svg10.dtd">
<svg version="1.0" xmlns="http://www.w3.org/2000/svg"
 width="700.000000pt" height="700.000000pt" viewBox="0 0 700.000000 700.000000"
 preserveAspectRatio="xMidYMid meet">
<metadata>
Created by potrace 1.14, written by Peter Selinger 2001-2017
</metadata>
<g transform="translate(0.000000,700.000000) scale(0.100000,-0.100000)"
fill="#000000" stroke="none">
<path d="M3441 6693 c-267 -504 -591 -1201 -801 -1725 -34 -84 -66 -162 -71
-173 -4 -11 -18 -45 -29 -75 -11 -30 -25 -64 -29 -75 -5 -11 -17 -41 -27 -67
l-17 -48 -51 -1 c-89 -2 -369 -17 -456 -24 -30 -2 -95 -7 -145 -10 -49 -3
-117 -8 -150 -10 -33 -3 -91 -7 -130 -10 -38 -3 -90 -7 -115 -10 -25 -2 -79
-7 -120 -10 -41 -3 -91 -8 -110 -10 -57 -7 -131 -14 -200 -20 -36 -3 -81 -8
-100 -10 -19 -3 -60 -7 -90 -10 -30 -3 -71 -8 -90 -10 -19 -3 -57 -7 -84 -10
-26 -2 -67 -7 -90 -10 -83 -11 -112 -15 -166 -20 -30 -4 -82 -10 -115 -15 -33
-5 -89 -12 -124 -16 -124 -13 -123 -9 -36 -94 89 -86 81 -79 245 -230 68 -63
134 -124 146 -135 25 -24 178 -162 208 -188 12 -10 37 -33 56 -50 20 -18 71
-63 115 -102 44 -38 82 -72 85 -75 3 -3 52 -46 110 -95 58 -49 116 -100 130
-111 44 -38 115 -98 161 -135 57 -47 188 -156 214 -178 11 -9 79 -63 150 -120
72 -57 133 -107 138 -111 4 -3 -10 -71 -32 -151 -48 -175 -125 -470 -156 -597
l-22 -93 36 -15 c140 -61 301 -104 481 -128 116 -16 343 -21 455 -11 115 10
207 23 305 40 14 3 39 7 55 10 17 3 80 19 140 35 583 154 1123 468 1565 910
416 415 682 882 779 1365 27 135 46 351 32 373 -7 12 -95 25 -251 37 -31 2
-101 7 -260 20 -25 2 -99 7 -165 11 -66 4 -131 8 -145 10 -14 1 -51 2 -82 3
l-56 1 -42 108 c-23 59 -58 148 -77 197 -20 50 -41 104 -49 120 -7 17 -29 71
-50 120 -78 192 -229 538 -308 707 -18 40 -46 100 -61 133 -95 204 -426 860
-444 878 -4 4 -31 -36 -60 -90z"/>
<path d="M4405 6040 c3 -5 8 -10 11 -10 2 0 4 5 4 10 0 6 -5 10 -11 10 -5 0
-7 -4 -4 -10z"/>
<path d="M4430 6040 c0 -4 28 -13 63 -20 85 -17 251 -68 322 -99 238 -103 413
-219 561 -371 98 -102 89 -92 150 -175 144 -196 248 -450 280 -680 3 -22 8
-51 11 -65 12 -59 10 -370 -3 -475 -85 -646 -458 -1304 -1035 -1824 -106 -95
-114 -103 -214 -182 -127 -101 -249 -183 -475 -319 -64 -38 -309 -158 -415
-203 -204 -85 -495 -175 -655 -202 -19 -3 -53 -10 -75 -15 -121 -26 -332 -44
-520 -44 -114 0 -276 10 -320 19 -11 3 -37 7 -58 10 -197 27 -447 107 -617
197 -90 48 -252 154 -300 198 -149 135 -240 241 -326 380 -78 125 -156 315
-185 445 -7 33 -13 62 -14 65 -1 3 -5 28 -10 55 -4 28 -10 59 -12 70 -2 11 -6
94 -9 185 -4 149 4 252 31 425 3 17 -11 -15 -30 -70 -37 -109 -89 -317 -100
-405 -4 -30 -9 -64 -11 -75 -8 -42 -18 -204 -17 -290 2 -659 329 -1209 898
-1510 50 -26 94 -51 98 -55 5 -4 4 -25 -2 -46 -6 -22 -13 -57 -16 -79 -4 -22
-10 -56 -15 -75 -5 -19 -11 -46 -13 -60 -3 -14 -26 -139 -52 -278 -26 -139
-45 -255 -42 -258 5 -5 507 242 649 319 35 19 88 48 118 64 30 16 64 34 75 41
11 6 85 47 165 91 l145 80 125 5 c69 4 143 8 165 11 22 3 60 7 85 9 333 35
807 168 1128 317 35 16 65 29 68 29 6 0 271 -157 306 -181 15 -11 30 -19 33
-19 3 0 63 -33 133 -74 359 -208 1165 -627 1178 -613 5 4 1 26 -22 145 -2 12
-6 32 -8 45 -2 12 -11 63 -21 112 -9 50 -19 101 -21 115 -3 14 -7 32 -9 40 -2
8 -7 31 -10 50 -6 35 -43 213 -89 430 -33 154 -104 466 -116 510 -5 19 -26
100 -45 180 l-35 144 42 45 c24 24 54 56 68 70 14 15 54 60 90 101 36 41 67
77 70 80 3 3 23 28 45 55 21 28 42 52 45 55 3 3 23 30 45 60 22 30 42 57 45
60 12 10 109 159 170 260 115 190 219 409 290 607 31 89 36 95 109 160 71 64
115 103 236 215 28 26 64 59 80 74 27 24 220 205 318 298 21 20 35 36 30 36
-4 0 -84 14 -178 30 -93 17 -188 33 -210 36 -22 3 -85 13 -140 22 -87 15 -100
20 -101 37 -2 47 -15 172 -19 195 -3 13 -7 41 -10 62 -27 179 -135 449 -245
614 -79 117 -114 158 -227 270 -156 154 -369 291 -588 377 -92 37 -302 100
-365 111 -19 3 -44 7 -55 10 -128 26 -415 51 -415 36z"/>
</g>
</svg>
