<svg xmlns="http://www.w3.org/2000/svg" xmlns:xlink="http://www.w3.org/1999/xlink" width="500" zoomAndPan="magnify" viewBox="0 0 375 374.999991" height="500" preserveAspectRatio="xMidYMid meet" version="1.0"><defs><g/><clipPath id="3bb9df8517"><path d="M 84 61 L 304 61 L 304 256.949219 L 84 256.949219 Z M 84 61 " clip-rule="nonzero"/></clipPath><clipPath id="3fd568b758"><path d="M 70 36.449219 L 254 36.449219 L 254 208 L 70 208 Z M 70 36.449219 " clip-rule="nonzero"/></clipPath></defs><g clip-path="url(#3bb9df8517)"><path fill="#ff3131" d="M 255.53125 85.070312 C 277.347656 116.640625 259.8125 166.597656 216.359375 196.628906 C 172.910156 226.65625 119.980469 225.398438 98.160156 193.828125 C 89.101562 180.71875 86.828125 164.433594 90.378906 147.726562 C 81.777344 170.421875 82.480469 193.253906 94.542969 210.703125 C 100.875 219.859375 109.691406 226.609375 120.144531 230.96875 C 119.511719 230.707031 118.886719 230.433594 118.261719 230.148438 C 116.410156 239.042969 114.675781 248.054688 113.046875 257.183594 C 126.125 250.960938 139.125 244.183594 152.039062 236.871094 L 151.199219 236.871094 C 168.386719 236.988281 187.207031 232.683594 205.554688 223.957031 L 204.53125 224.445312 C 222.855469 235.582031 241.347656 245.609375 260.015625 254.523438 C 256.320312 234.03125 252.027344 214.132812 247.140625 194.824219 L 246.859375 195.105469 C 263.46875 178.816406 274.792969 159.9375 279.738281 141.453125 C 279.394531 142.722656 279.035156 143.988281 278.636719 145.257812 C 287.042969 137.796875 295.402344 130.082031 303.730469 122.113281 C 296.71875 120.824219 289.636719 119.644531 282.507812 118.59375 L 282.515625 118.777344 C 282.144531 107.453125 278.9375 96.8125 272.617188 87.65625 C 260.550781 70.207031 239.445312 61.46875 215.171875 61.496094 C 232.0625 64.082031 246.488281 71.960938 255.550781 85.082031 Z M 205.582031 223.9375 C 206.285156 223.605469 206.996094 223.253906 207.699219 222.914062 C 206.996094 223.261719 206.296875 223.605469 205.582031 223.9375 Z M 209.132812 222.191406 C 209.921875 221.789062 210.722656 221.371094 211.511719 220.953125 C 210.722656 221.371094 209.921875 221.789062 209.132812 222.191406 Z M 211.550781 220.933594 C 212.714844 220.316406 213.863281 219.683594 215.015625 219.03125 C 213.863281 219.683594 212.703125 220.316406 211.550781 220.933594 Z M 215.113281 218.972656 C 216.253906 218.328125 217.386719 217.664062 218.515625 216.984375 C 217.386719 217.664062 216.253906 218.328125 215.113281 218.972656 Z M 218.59375 216.933594 C 219.375 216.464844 220.15625 215.988281 220.925781 215.5 C 220.15625 215.988281 219.375 216.464844 218.59375 216.933594 Z M 222.125 214.738281 C 222.867188 214.261719 223.617188 213.785156 224.359375 213.285156 C 223.617188 213.773438 222.875 214.261719 222.125 214.738281 Z M 226.738281 211.667969 C 227.148438 211.382812 227.558594 211.089844 227.96875 210.808594 C 227.558594 211.101562 227.148438 211.382812 226.738281 211.667969 Z M 231.886719 207.949219 C 232.667969 207.367188 233.449219 206.769531 234.21875 206.167969 C 233.449219 206.769531 232.679688 207.367188 231.886719 207.949219 Z M 236.8125 204.089844 C 237.554688 203.484375 238.296875 202.871094 239.019531 202.246094 C 238.285156 202.859375 237.554688 203.472656 236.8125 204.089844 Z M 239.035156 202.234375 C 239.769531 201.613281 240.492188 200.988281 241.210938 200.351562 C 240.5 200.988281 239.769531 201.613281 239.035156 202.234375 Z M 241.347656 200.234375 C 241.710938 199.914062 242.070312 199.59375 242.429688 199.269531 C 242.070312 199.59375 241.710938 199.914062 241.347656 200.234375 Z M 243.628906 198.167969 L 244.65625 197.210938 C 244.3125 197.535156 243.972656 197.855469 243.628906 198.167969 Z M 244.664062 197.203125 C 245.007812 196.882812 245.355469 196.550781 245.699219 196.226562 C 245.355469 196.558594 245.015625 196.882812 244.664062 197.203125 Z M 234.289062 206.117188 C 234.695312 205.796875 235.097656 205.484375 235.496094 205.160156 Z M 279.738281 141.433594 C 279.921875 140.742188 280.097656 140.058594 280.265625 139.367188 C 280.097656 140.058594 279.921875 140.742188 279.738281 141.433594 Z M 280.273438 139.316406 C 280.605469 137.933594 280.90625 136.558594 281.160156 135.191406 C 280.898438 136.566406 280.605469 137.941406 280.273438 139.316406 Z M 281.179688 135.105469 C 281.308594 134.449219 281.414062 133.796875 281.523438 133.152344 C 281.414062 133.808594 281.296875 134.460938 281.179688 135.105469 Z M 281.550781 133.007812 C 281.660156 132.34375 281.757812 131.691406 281.84375 131.039062 C 281.757812 131.691406 281.660156 132.355469 281.550781 133.007812 Z M 281.84375 131.019531 C 281.941406 130.335938 282.019531 129.652344 282.097656 128.96875 C 282.019531 129.652344 281.941406 130.335938 281.84375 131.019531 Z M 282.097656 128.949219 C 282.175781 128.277344 282.234375 127.605469 282.292969 126.929688 C 282.234375 127.605469 282.175781 128.277344 282.097656 128.949219 Z M 282.292969 126.871094 C 282.351562 126.210938 282.390625 125.546875 282.429688 124.894531 C 282.390625 125.554688 282.351562 126.210938 282.292969 126.871094 Z M 282.429688 124.824219 C 282.46875 124.171875 282.488281 123.519531 282.507812 122.863281 C 282.488281 123.519531 282.46875 124.171875 282.429688 124.824219 Z M 282.507812 122.785156 C 282.527344 122.121094 282.527344 121.460938 282.527344 120.804688 C 282.527344 121.46875 282.515625 122.121094 282.507812 122.785156 Z M 282.527344 120.796875 C 282.527344 120.132812 282.515625 119.480469 282.488281 118.828125 C 282.507812 119.480469 282.515625 120.144531 282.527344 120.796875 Z M 122.046875 231.71875 C 123.296875 232.199219 124.5625 232.636719 125.851562 233.046875 C 124.5625 232.636719 123.296875 232.199219 122.046875 231.71875 Z M 125.859375 233.046875 C 126.496094 233.25 127.128906 233.4375 127.761719 233.621094 C 127.121094 233.4375 126.484375 233.242188 125.859375 233.046875 Z M 127.871094 233.652344 C 128.496094 233.828125 129.128906 234 129.761719 234.167969 C 129.128906 234 128.496094 233.828125 127.871094 233.652344 Z M 129.859375 234.1875 C 130.511719 234.351562 131.167969 234.507812 131.820312 234.664062 C 131.167969 234.507812 130.503906 234.351562 129.859375 234.1875 Z M 131.839844 234.664062 C 132.511719 234.820312 133.1875 234.96875 133.867188 235.105469 C 133.1875 234.96875 132.511719 234.820312 131.839844 234.664062 Z M 133.886719 235.105469 C 134.5625 235.242188 135.234375 235.367188 135.917969 235.484375 C 135.234375 235.367188 134.5625 235.230469 133.886719 235.105469 Z M 140.179688 236.128906 C 140.871094 236.214844 141.5625 236.292969 142.265625 236.363281 C 141.5625 236.292969 140.871094 236.214844 140.179688 236.128906 Z M 142.382812 236.371094 C 143.054688 236.441406 143.738281 236.5 144.421875 236.558594 C 143.738281 236.507812 143.054688 236.441406 142.382812 236.371094 Z M 144.539062 236.558594 C 145.242188 236.605469 145.941406 236.65625 146.644531 236.695312 C 145.941406 236.65625 145.242188 236.605469 144.539062 236.558594 Z M 146.714844 236.695312 C 147.433594 236.734375 148.167969 236.761719 148.886719 236.78125 C 148.15625 236.761719 147.433594 236.734375 146.714844 236.695312 Z M 148.90625 236.78125 C 149.628906 236.800781 150.351562 236.820312 151.082031 236.820312 C 150.351562 236.8125 149.628906 236.800781 148.90625 236.78125 Z M 120.15625 230.9375 C 120.769531 231.191406 121.394531 231.445312 122.019531 231.679688 Z M 135.996094 235.484375 C 137.371094 235.726562 138.765625 235.933594 140.179688 236.109375 Z M 135.996094 235.484375 " fill-opacity="1" fill-rule="evenodd"/></g><g clip-path="url(#3fd568b758)"><path fill="#222222" d="M 253.6875 115.011719 C 253.949219 124.84375 251.402344 134.820312 247.453125 143.726562 C 239.613281 161.390625 225.773438 176.496094 209.980469 187.410156 C 194.183594 198.324219 175.152344 205.933594 155.871094 207.015625 C 145.386719 207.609375 134.289062 206.226562 124.671875 201.757812 C 126.972656 192.308594 129.421875 183.003906 132.003906 173.824219 C 121.824219 165.777344 111.699219 157.378906 101.632812 148.613281 C 96.445312 144.097656 91.277344 139.492188 86.125 134.78125 C 80.753906 129.875 75.398438 124.875 70.0625 119.761719 C 98.171875 115.882812 125.578125 113.382812 152.28125 112.273438 C 162.40625 85.625 173.90625 60.347656 186.78125 36.441406 C 199.945312 60.902344 211.53125 86.601562 221.382812 112.546875 C 232.289062 113.109375 243.066406 113.929688 253.707031 115.003906 Z M 253.6875 115.011719 " fill-opacity="1" fill-rule="evenodd"/></g><g fill="#222222" fill-opacity="1"><g transform="translate(8.892555, 305.992948)"><g><path d="M 28.28125 -7.796875 L 11.390625 -7.796875 L 8.15625 0 L -0.46875 0 L 15.75 -36.40625 L 24.078125 -36.40625 L 40.359375 0 L 31.515625 0 Z M 25.640625 -14.203125 L 19.859375 -28.125 L 14.09375 -14.203125 Z M 25.640625 -14.203125 "/></g></g></g><g fill="#222222" fill-opacity="1"><g transform="translate(60.837524, 305.992948)"><g><path d="M 16.28125 0.625 C 13.394531 0.625 10.609375 0.234375 7.921875 -0.546875 C 5.242188 -1.328125 3.085938 -2.34375 1.453125 -3.59375 L 4.3125 -9.9375 C 5.875 -8.789062 7.726562 -7.867188 9.875 -7.171875 C 12.03125 -6.484375 14.179688 -6.140625 16.328125 -6.140625 C 18.722656 -6.140625 20.488281 -6.492188 21.625 -7.203125 C 22.769531 -7.910156 23.34375 -8.851562 23.34375 -10.03125 C 23.34375 -10.90625 23.003906 -11.625 22.328125 -12.1875 C 21.648438 -12.757812 20.78125 -13.21875 19.71875 -13.5625 C 18.664062 -13.914062 17.238281 -14.300781 15.4375 -14.71875 C 12.664062 -15.375 10.394531 -16.03125 8.625 -16.6875 C 6.863281 -17.351562 5.347656 -18.410156 4.078125 -19.859375 C 2.816406 -21.316406 2.1875 -23.257812 2.1875 -25.6875 C 2.1875 -27.800781 2.753906 -29.71875 3.890625 -31.4375 C 5.035156 -33.15625 6.757812 -34.515625 9.0625 -35.515625 C 11.375 -36.523438 14.195312 -37.03125 17.53125 -37.03125 C 19.851562 -37.03125 22.117188 -36.75 24.328125 -36.1875 C 26.546875 -35.632812 28.488281 -34.835938 30.15625 -33.796875 L 27.5625 -27.40625 C 24.195312 -29.3125 20.832031 -30.265625 17.46875 -30.265625 C 15.113281 -30.265625 13.375 -29.878906 12.25 -29.109375 C 11.125 -28.347656 10.5625 -27.347656 10.5625 -26.109375 C 10.5625 -24.859375 11.207031 -23.925781 12.5 -23.3125 C 13.800781 -22.707031 15.785156 -22.113281 18.453125 -21.53125 C 21.234375 -20.875 23.503906 -20.210938 25.265625 -19.546875 C 27.035156 -18.890625 28.550781 -17.847656 29.8125 -16.421875 C 31.082031 -15.003906 31.71875 -13.082031 31.71875 -10.65625 C 31.71875 -8.582031 31.132812 -6.6875 29.96875 -4.96875 C 28.8125 -3.25 27.070312 -1.882812 24.75 -0.875 C 22.425781 0.125 19.601562 0.625 16.28125 0.625 Z M 16.28125 0.625 "/></g></g></g><g fill="#222222" fill-opacity="1"><g transform="translate(106.127, 305.992948)"><g><path d="M 11.859375 -29.53125 L 0.203125 -29.53125 L 0.203125 -36.40625 L 31.921875 -36.40625 L 31.921875 -29.53125 L 20.28125 -29.53125 L 20.28125 0 L 11.859375 0 Z M 11.859375 -29.53125 "/></g></g></g><g fill="#222222" fill-opacity="1"><g transform="translate(150.37655, 305.992948)"><g><path d="M 32.5 -6.765625 L 32.5 0 L 4.3125 0 L 4.3125 -36.40625 L 31.828125 -36.40625 L 31.828125 -29.640625 L 12.6875 -29.640625 L 12.6875 -21.734375 L 29.59375 -21.734375 L 29.59375 -15.1875 L 12.6875 -15.1875 L 12.6875 -6.765625 Z M 32.5 -6.765625 "/></g></g></g><g fill="#222222" fill-opacity="1"><g transform="translate(197.381896, 305.992948)"><g><path d="M 27.515625 0 L 20.484375 -10.140625 L 12.734375 -10.140625 L 12.734375 0 L 4.3125 0 L 4.3125 -36.40625 L 20.078125 -36.40625 C 23.296875 -36.40625 26.09375 -35.863281 28.46875 -34.78125 C 30.84375 -33.707031 32.671875 -32.179688 33.953125 -30.203125 C 35.234375 -28.234375 35.875 -25.894531 35.875 -23.1875 C 35.875 -20.488281 35.222656 -18.160156 33.921875 -16.203125 C 32.628906 -14.242188 30.785156 -12.742188 28.390625 -11.703125 L 36.5625 0 Z M 27.359375 -23.1875 C 27.359375 -25.238281 26.695312 -26.804688 25.375 -27.890625 C 24.0625 -28.984375 22.140625 -29.53125 19.609375 -29.53125 L 12.734375 -29.53125 L 12.734375 -16.84375 L 19.609375 -16.84375 C 22.140625 -16.84375 24.0625 -17.394531 25.375 -18.5 C 26.695312 -19.613281 27.359375 -21.175781 27.359375 -23.1875 Z M 27.359375 -23.1875 "/></g></g></g><g fill="#222222" fill-opacity="1"><g transform="translate(247.714988, 305.992948)"><g><path d="M 4.3125 -36.40625 L 12.734375 -36.40625 L 12.734375 0 L 4.3125 0 Z M 4.3125 -36.40625 "/></g></g></g><g fill="#222222" fill-opacity="1"><g transform="translate(276.885679, 305.992948)"><g><path d="M 20.484375 0.625 C 15.285156 0.625 11.238281 -0.8125 8.34375 -3.6875 C 5.445312 -6.570312 4 -10.679688 4 -16.015625 L 4 -36.40625 L 12.421875 -36.40625 L 12.421875 -16.328125 C 12.421875 -9.804688 15.128906 -6.546875 20.546875 -6.546875 C 23.171875 -6.546875 25.175781 -7.332031 26.5625 -8.90625 C 27.957031 -10.488281 28.65625 -12.960938 28.65625 -16.328125 L 28.65625 -36.40625 L 36.96875 -36.40625 L 36.96875 -16.015625 C 36.96875 -10.679688 35.519531 -6.570312 32.625 -3.6875 C 29.726562 -0.8125 25.679688 0.625 20.484375 0.625 Z M 20.484375 0.625 "/></g></g></g><g fill="#222222" fill-opacity="1"><g transform="translate(329.974566, 305.992948)"><g><path d="M 33.796875 -6.859375 L 33.796875 0 L 1.96875 0 L 1.96875 -5.453125 L 21.9375 -29.53125 L 2.390625 -29.53125 L 2.390625 -36.40625 L 33.015625 -36.40625 L 33.015625 -30.9375 L 13.109375 -6.859375 Z M 33.796875 -6.859375 "/></g></g></g><g fill="#ff3131" fill-opacity="1"><g transform="translate(56.190106, 343.193005)"><g><path d="M 12.25 -18.125 L 12.25 -16.203125 L 4.375 -16.203125 L 4.375 -10.09375 L 10.765625 -10.09375 L 10.765625 -8.15625 L 4.375 -8.15625 L 4.375 0 L 2 0 L 2 -18.125 Z M 12.25 -18.125 "/></g></g></g><g fill="#ff3131" fill-opacity="1"><g transform="translate(82.498192, 343.193005)"><g><path d="M 4.3125 -18.125 L 4.3125 -6.65625 C 4.3125 -5.039062 4.707031 -3.84375 5.5 -3.0625 C 6.289062 -2.28125 7.382812 -1.890625 8.78125 -1.890625 C 10.175781 -1.890625 11.265625 -2.28125 12.046875 -3.0625 C 12.835938 -3.84375 13.234375 -5.039062 13.234375 -6.65625 L 13.234375 -18.125 L 15.59375 -18.125 L 15.59375 -6.6875 C 15.59375 -5.175781 15.289062 -3.90625 14.6875 -2.875 C 14.082031 -1.84375 13.265625 -1.070312 12.234375 -0.5625 C 11.203125 -0.0625 10.046875 0.1875 8.765625 0.1875 C 7.484375 0.1875 6.328125 -0.0625 5.296875 -0.5625 C 4.265625 -1.070312 3.445312 -1.84375 2.84375 -2.875 C 2.25 -3.90625 1.953125 -5.175781 1.953125 -6.6875 L 1.953125 -18.125 Z M 4.3125 -18.125 "/></g></g></g><g fill="#ff3131" fill-opacity="1"><g transform="translate(113.250946, 343.193005)"><g><path d="M 4.375 -1.921875 L 10.71875 -1.921875 L 10.71875 0 L 2 0 L 2 -18.125 L 4.375 -18.125 Z M 4.375 -1.921875 "/></g></g></g><g fill="#ff3131" fill-opacity="1"><g transform="translate(137.687587, 343.193005)"><g><path d="M 4.375 -1.921875 L 10.71875 -1.921875 L 10.71875 0 L 2 0 L 2 -18.125 L 4.375 -18.125 Z M 4.375 -1.921875 "/></g></g></g><g fill="#ff3131" fill-opacity="1"><g transform="translate(162.124235, 343.193005)"><g/></g></g><g fill="#ff3131" fill-opacity="1"><g transform="translate(182.272175, 343.193005)"><g><path d="M 7.75 0.1875 C 6.550781 0.1875 5.476562 -0.0234375 4.53125 -0.453125 C 3.59375 -0.878906 2.851562 -1.46875 2.3125 -2.21875 C 1.78125 -2.976562 1.503906 -3.851562 1.484375 -4.84375 L 4 -4.84375 C 4.09375 -3.988281 4.445312 -3.269531 5.0625 -2.6875 C 5.675781 -2.101562 6.570312 -1.8125 7.75 -1.8125 C 8.875 -1.8125 9.757812 -2.09375 10.40625 -2.65625 C 11.0625 -3.226562 11.390625 -3.957031 11.390625 -4.84375 C 11.390625 -5.53125 11.195312 -6.085938 10.8125 -6.515625 C 10.4375 -6.953125 9.960938 -7.285156 9.390625 -7.515625 C 8.816406 -7.742188 8.046875 -7.984375 7.078125 -8.234375 C 5.878906 -8.546875 4.921875 -8.859375 4.203125 -9.171875 C 3.484375 -9.484375 2.867188 -9.972656 2.359375 -10.640625 C 1.847656 -11.304688 1.59375 -12.207031 1.59375 -13.34375 C 1.59375 -14.320312 1.84375 -15.191406 2.34375 -15.953125 C 2.84375 -16.722656 3.546875 -17.316406 4.453125 -17.734375 C 5.367188 -18.148438 6.414062 -18.359375 7.59375 -18.359375 C 9.289062 -18.359375 10.679688 -17.929688 11.765625 -17.078125 C 12.847656 -16.234375 13.457031 -15.109375 13.59375 -13.703125 L 11 -13.703125 C 10.914062 -14.390625 10.550781 -15 9.90625 -15.53125 C 9.257812 -16.0625 8.410156 -16.328125 7.359375 -16.328125 C 6.367188 -16.328125 5.5625 -16.070312 4.9375 -15.5625 C 4.3125 -15.050781 4 -14.335938 4 -13.421875 C 4 -12.753906 4.1875 -12.210938 4.5625 -11.796875 C 4.9375 -11.390625 5.394531 -11.078125 5.9375 -10.859375 C 6.488281 -10.640625 7.253906 -10.390625 8.234375 -10.109375 C 9.429688 -9.785156 10.394531 -9.460938 11.125 -9.140625 C 11.851562 -8.816406 12.476562 -8.320312 13 -7.65625 C 13.519531 -6.988281 13.78125 -6.082031 13.78125 -4.9375 C 13.78125 -4.050781 13.546875 -3.21875 13.078125 -2.4375 C 12.609375 -1.664062 11.914062 -1.035156 11 -0.546875 C 10.082031 -0.0546875 9 0.1875 7.75 0.1875 Z M 7.75 0.1875 "/></g></g></g><g fill="#ff3131" fill-opacity="1"><g transform="translate(210.737624, 343.193005)"><g><path d="M 13.15625 -18.125 L 13.15625 -16.203125 L 8.21875 -16.203125 L 8.21875 0 L 5.84375 0 L 5.84375 -16.203125 L 0.890625 -16.203125 L 0.890625 -18.125 Z M 13.15625 -18.125 "/></g></g></g><g fill="#ff3131" fill-opacity="1"><g transform="translate(238.007428, 343.193005)"><g><path d="M 12.71875 -4.03125 L 4.8125 -4.03125 L 3.359375 0 L 0.859375 0 L 7.40625 -18.015625 L 10.140625 -18.015625 L 16.671875 0 L 14.171875 0 Z M 12.03125 -5.953125 L 8.765625 -15.109375 L 5.484375 -5.953125 Z M 12.03125 -5.953125 "/></g></g></g><g fill="#ff3131" fill-opacity="1"><g transform="translate(268.734182, 343.193005)"><g><path d="M 1.125 -9.078125 C 1.125 -10.835938 1.519531 -12.425781 2.3125 -13.84375 C 3.113281 -15.257812 4.203125 -16.363281 5.578125 -17.15625 C 6.953125 -17.957031 8.484375 -18.359375 10.171875 -18.359375 C 12.140625 -18.359375 13.859375 -17.878906 15.328125 -16.921875 C 16.804688 -15.972656 17.882812 -14.625 18.5625 -12.875 L 15.734375 -12.875 C 15.222656 -13.96875 14.492188 -14.804688 13.546875 -15.390625 C 12.609375 -15.984375 11.484375 -16.28125 10.171875 -16.28125 C 8.898438 -16.28125 7.757812 -15.984375 6.75 -15.390625 C 5.75 -14.804688 4.960938 -13.972656 4.390625 -12.890625 C 3.816406 -11.804688 3.53125 -10.535156 3.53125 -9.078125 C 3.53125 -7.640625 3.816406 -6.378906 4.390625 -5.296875 C 4.960938 -4.210938 5.75 -3.375 6.75 -2.78125 C 7.757812 -2.1875 8.898438 -1.890625 10.171875 -1.890625 C 11.484375 -1.890625 12.609375 -2.179688 13.546875 -2.765625 C 14.492188 -3.347656 15.222656 -4.1875 15.734375 -5.28125 L 18.5625 -5.28125 C 17.882812 -3.539062 16.804688 -2.195312 15.328125 -1.25 C 13.859375 -0.3125 12.140625 0.15625 10.171875 0.15625 C 8.484375 0.15625 6.953125 -0.234375 5.578125 -1.015625 C 4.203125 -1.804688 3.113281 -2.90625 2.3125 -4.3125 C 1.519531 -5.71875 1.125 -7.304688 1.125 -9.078125 Z M 1.125 -9.078125 "/></g></g></g><g fill="#ff3131" fill-opacity="1"><g transform="translate(302.008175, 343.193005)"><g><path d="M 11.828125 0 L 4.375 -8.265625 L 4.375 0 L 2 0 L 2 -18.125 L 4.375 -18.125 L 4.375 -9.71875 L 11.859375 -18.125 L 14.84375 -18.125 L 6.625 -9.046875 L 14.921875 0 Z M 11.828125 0 "/></g></g></g></svg>