<svg xmlns="http://www.w3.org/2000/svg" xmlns:xlink="http://www.w3.org/1999/xlink" width="500" zoomAndPan="magnify" viewBox="0 0 375 374.999991" height="500" preserveAspectRatio="xMidYMid meet" version="1.0"><defs><clipPath id="2ea544da4c"><path d="M 23 51 L 375 51 L 375 364.1875 L 23 364.1875 Z M 23 51 " clip-rule="nonzero"/></clipPath><clipPath id="df4dc1e192"><path d="M 0 10.9375 L 295 10.9375 L 295 285 L 0 285 Z M 0 10.9375 " clip-rule="nonzero"/></clipPath></defs><g clip-path="url(#2ea544da4c)"><path fill="#ff3131" d="M 297.3125 88.71875 C 332.214844 139.222656 304.160156 219.140625 234.652344 267.179688 C 165.140625 315.222656 80.464844 313.210938 45.5625 262.703125 C 31.066406 241.734375 27.429688 215.675781 33.109375 188.949219 C 19.347656 225.257812 20.472656 261.78125 39.773438 289.695312 C 49.898438 304.347656 64.003906 315.144531 80.730469 322.117188 C 79.714844 321.695312 78.71875 321.261719 77.71875 320.808594 C 74.753906 335.039062 71.976562 349.453125 69.371094 364.058594 C 90.296875 354.105469 111.09375 343.261719 131.75 331.558594 L 130.410156 331.558594 C 157.902344 331.746094 188.015625 324.863281 217.363281 310.898438 L 215.726562 311.679688 C 245.042969 329.5 274.625 345.539062 304.488281 359.800781 C 298.574219 327.019531 291.710938 295.1875 283.894531 264.292969 L 283.441406 264.746094 C 310.011719 238.691406 328.128906 208.484375 336.039062 178.917969 C 335.492188 180.945312 334.914062 182.972656 334.273438 185 C 347.722656 173.066406 361.097656 160.722656 374.421875 147.976562 C 363.203125 145.917969 351.875 144.027344 340.46875 142.34375 L 340.484375 142.640625 C 339.890625 124.527344 334.757812 107.503906 324.648438 92.851562 C 305.347656 64.9375 271.582031 50.957031 232.746094 51.003906 C 259.773438 55.140625 282.847656 67.746094 297.34375 88.734375 Z M 217.410156 310.867188 C 218.535156 310.339844 219.671875 309.777344 220.796875 309.230469 C 219.671875 309.792969 218.550781 310.339844 217.410156 310.867188 Z M 223.089844 308.074219 C 224.355469 307.4375 225.632812 306.765625 226.898438 306.09375 C 225.632812 306.765625 224.355469 307.4375 223.089844 308.074219 Z M 226.960938 306.0625 C 228.816406 305.082031 230.65625 304.066406 232.5 303.019531 C 230.65625 304.066406 228.800781 305.082031 226.960938 306.0625 Z M 232.652344 302.925781 C 234.480469 301.898438 236.289062 300.835938 238.101562 299.746094 C 236.289062 300.835938 234.480469 301.898438 232.652344 302.925781 Z M 238.222656 299.667969 C 239.472656 298.917969 240.722656 298.152344 241.953125 297.371094 C 240.722656 298.152344 239.472656 298.917969 238.222656 299.667969 Z M 243.871094 296.15625 C 245.058594 295.390625 246.261719 294.625 247.445312 293.832031 C 246.261719 294.609375 245.074219 295.390625 243.871094 296.15625 Z M 251.253906 291.242188 C 251.90625 290.789062 252.5625 290.320312 253.21875 289.867188 C 252.5625 290.335938 251.90625 290.789062 251.253906 291.242188 Z M 259.492188 285.296875 C 260.738281 284.359375 261.988281 283.40625 263.21875 282.441406 C 261.988281 283.40625 260.753906 284.359375 259.492188 285.296875 Z M 267.371094 279.117188 C 268.554688 278.148438 269.742188 277.167969 270.898438 276.167969 C 269.726562 277.152344 268.554688 278.132812 267.371094 279.117188 Z M 270.929688 276.152344 C 272.097656 275.152344 273.253906 274.15625 274.40625 273.140625 C 273.269531 274.15625 272.097656 275.152344 270.929688 276.152344 Z M 274.625 272.953125 C 275.203125 272.4375 275.78125 271.925781 276.359375 271.410156 C 275.78125 271.925781 275.203125 272.4375 274.625 272.953125 Z M 278.277344 269.648438 L 279.914062 268.117188 C 279.367188 268.632812 278.824219 269.148438 278.277344 269.648438 Z M 279.929688 268.101562 C 280.476562 267.585938 281.039062 267.054688 281.585938 266.542969 C 281.039062 267.070312 280.492188 267.585938 279.929688 268.101562 Z M 263.328125 282.363281 C 263.984375 281.847656 264.625 281.347656 265.265625 280.832031 Z M 336.039062 178.886719 C 336.335938 177.777344 336.613281 176.683594 336.878906 175.578125 C 336.613281 176.683594 336.335938 177.777344 336.039062 178.886719 Z M 336.894531 175.5 C 337.425781 173.285156 337.910156 171.085938 338.316406 168.898438 C 337.894531 171.101562 337.425781 173.300781 336.894531 175.5 Z M 338.347656 168.757812 C 338.550781 167.714844 338.722656 166.667969 338.894531 165.640625 C 338.722656 166.683594 338.535156 167.730469 338.347656 168.757812 Z M 338.941406 165.40625 C 339.113281 164.34375 339.269531 163.296875 339.40625 162.253906 C 339.269531 163.296875 339.113281 164.359375 338.941406 165.40625 Z M 339.40625 162.222656 C 339.5625 161.128906 339.6875 160.039062 339.8125 158.945312 C 339.6875 160.039062 339.5625 161.128906 339.40625 162.222656 Z M 339.8125 158.914062 C 339.9375 157.835938 340.03125 156.761719 340.125 155.683594 C 340.03125 156.761719 339.9375 157.835938 339.8125 158.914062 Z M 340.125 155.589844 C 340.21875 154.53125 340.28125 153.46875 340.34375 152.421875 C 340.28125 153.484375 340.21875 154.53125 340.125 155.589844 Z M 340.34375 152.3125 C 340.40625 151.269531 340.4375 150.222656 340.46875 149.179688 C 340.4375 150.222656 340.40625 151.269531 340.34375 152.3125 Z M 340.46875 149.054688 C 340.5 147.992188 340.5 146.929688 340.5 145.886719 C 340.5 146.945312 340.484375 147.992188 340.46875 149.054688 Z M 340.5 145.871094 C 340.5 144.808594 340.484375 143.761719 340.4375 142.71875 C 340.46875 143.761719 340.484375 144.824219 340.5 145.871094 Z M 83.773438 323.320312 C 85.769531 324.085938 87.796875 324.785156 89.859375 325.441406 C 87.796875 324.785156 85.769531 324.085938 83.773438 323.320312 Z M 89.875 325.441406 C 90.886719 325.769531 91.902344 326.066406 92.917969 326.363281 C 91.886719 326.066406 90.871094 325.753906 89.875 325.441406 Z M 93.085938 326.410156 C 94.085938 326.691406 95.101562 326.972656 96.113281 327.234375 C 95.101562 326.972656 94.085938 326.691406 93.085938 326.410156 Z M 96.269531 327.265625 C 97.316406 327.53125 98.363281 327.78125 99.40625 328.03125 C 98.363281 327.78125 97.300781 327.53125 96.269531 327.265625 Z M 99.4375 328.03125 C 100.515625 328.28125 101.589844 328.515625 102.683594 328.734375 C 101.589844 328.515625 100.515625 328.28125 99.4375 328.03125 Z M 102.714844 328.734375 C 103.792969 328.953125 104.867188 329.15625 105.960938 329.34375 C 104.867188 329.15625 103.792969 328.9375 102.714844 328.734375 Z M 112.777344 330.371094 C 113.886719 330.511719 114.992188 330.636719 116.117188 330.746094 C 114.992188 330.636719 113.886719 330.511719 112.777344 330.371094 Z M 116.304688 330.761719 C 117.382812 330.871094 118.472656 330.964844 119.566406 331.058594 C 118.472656 330.980469 117.382812 330.871094 116.304688 330.761719 Z M 119.753906 331.058594 C 120.875 331.136719 122 331.214844 123.125 331.277344 C 122 331.214844 120.875 331.136719 119.753906 331.058594 Z M 123.230469 331.277344 C 124.386719 331.339844 125.558594 331.386719 126.710938 331.417969 C 125.542969 331.386719 124.386719 331.339844 123.230469 331.277344 Z M 126.742188 331.417969 C 127.898438 331.449219 129.050781 331.480469 130.222656 331.480469 C 129.050781 331.464844 127.898438 331.449219 126.742188 331.417969 Z M 80.746094 322.070312 C 81.730469 322.476562 82.726562 322.882812 83.726562 323.257812 Z M 106.085938 329.34375 C 108.285156 329.734375 110.515625 330.058594 112.777344 330.339844 Z M 106.085938 329.34375 " fill-opacity="1" fill-rule="evenodd"/></g><g clip-path="url(#df4dc1e192)"><path fill="#ffffff" d="M 294.363281 136.617188 C 294.785156 152.34375 290.710938 168.308594 284.394531 182.550781 C 271.847656 210.808594 249.707031 234.976562 224.445312 252.4375 C 199.171875 269.894531 168.730469 282.066406 137.882812 283.796875 C 121.109375 284.75 103.355469 282.535156 87.96875 275.386719 C 91.652344 260.269531 95.570312 245.382812 99.703125 230.703125 C 83.414062 217.828125 67.21875 204.394531 51.117188 190.367188 C 42.816406 183.144531 34.546875 175.78125 26.308594 168.246094 C 17.710938 160.394531 9.144531 152.390625 0.609375 144.214844 C 45.578125 138.007812 89.421875 134.011719 132.140625 132.234375 C 148.335938 89.605469 166.734375 49.164062 187.328125 10.921875 C 208.390625 50.054688 226.929688 91.167969 242.6875 132.671875 C 260.128906 133.574219 277.371094 134.886719 294.394531 136.601562 Z M 294.363281 136.617188 " fill-opacity="1" fill-rule="evenodd"/></g></svg>